<svg xmlns="http://www.w3.org/2000/svg" viewBox="0 0 184.25 113.39">
  <path fill="#f9d3cc" d="M129.14 36.32l-4.76-2.52c-.57-.3-1.26-.25-1.78.13l-21.1 15.56c-7.02 5.17-16.91-.06-16.58-8.77l.99-26.2c.02-.64-.32-1.25-.89-1.55l-4.76-2.52-28.67 54.19 4.62 2.44c.67.35 1.08 1.06 1.05 1.82l-.98 25.98c-.33 8.71 9.56 13.94 16.58 8.77l20.92-15.43c.61-.45 1.42-.51 2.09-.16l4.62 2.44 28.65-54.18z"/>
  <path d="M68.72 54.05c.87-1.65 2.59-1.96 3.9-1.26 1.14.6 1.52 1.61 1.54 2.2l-1.27.14c0-.35-.17-.96-.82-1.3-.82-.43-1.75-.18-2.27.81s-.23 1.89.6 2.33c.66.35 1.28.1 1.53-.1l.71 1.07c-.48.37-1.64.67-2.78.06-1.36-.72-1.99-2.36-1.14-3.95zM74.03 56.87c.8-1.51 2.49-2.02 3.99-1.22s2.03 2.48 1.23 3.99c-.8 1.51-2.49 2.02-3.99 1.22s-2.03-2.49-1.23-3.99zm4.12 2.18c.48-.91.21-1.9-.68-2.37-.9-.48-1.87-.14-2.35.77s-.21 1.9.69 2.38c.89.47 1.86.13 2.34-.78zM81.74 57.71l1.35.71-.56 4.73 3.59-3.12 1.34.71-2.68 5.06-1.06-.56 1.73-3.27-2.92 2.62-1.19-.63.52-3.89-1.73 3.27-1.06-.56 2.67-5.07zM88.9 61.49l1.06.56-2.68 5.06-1.06-.56 2.68-5.06zM91.4 62.82l.92.48.56 4.4 1.7-3.21 1.06.56-2.68 5.06-.94-.5-.58-4.3-1.65 3.12-1.06-.56 2.67-5.05zM95.44 68.22c.86-1.61 2.57-2 3.98-1.25 1.12.59 1.54 1.6 1.53 2.2l-1.22.12c0-.34-.2-.94-.86-1.29-.75-.4-1.75-.3-2.33.81-.54 1.03-.19 2.02.6 2.44.71.37 1.47.24 1.9-.34l.02-.03-.99-.52.43-.81 2.09 1.1-1.45 2.74-.96-.51.43-.8c-.43.35-1.2.49-2.05.04-1.31-.69-1.96-2.31-1.12-3.9zM68.74 66.46l1.2.24c-.08.4-.05.87.48 1.15.39.2.8.22 1.02-.19.24-.45-.15-.89-.61-1.39-.54-.58-1.11-1.29-.64-2.18.5-.94 1.46-1.09 2.57-.5 1 .53 1.26 1.38 1.16 1.94l-1.2-.08c.07-.31-.01-.77-.44-1-.45-.24-.78-.16-.95.16-.19.36.12.71.49 1.12.58.62 1.3 1.41.73 2.5-.48.92-1.56 1.1-2.62.54-1.1-.59-1.35-1.61-1.19-2.31zM73.94 67.55c.8-1.51 2.49-2.02 3.99-1.22 1.51.8 2.04 2.48 1.24 3.99-.8 1.5-2.49 2.02-3.99 1.22-1.51-.8-2.04-2.49-1.24-3.99zm4.12 2.18c.48-.91.21-1.9-.68-2.37-.9-.48-1.87-.14-2.35.77s-.21 1.9.69 2.38c.89.46 1.86.13 2.34-.78zM80.02 70.77c.8-1.51 2.49-2.02 4-1.22 1.5.8 2.03 2.48 1.23 3.99-.8 1.5-2.49 2.02-3.99 1.22-1.51-.8-2.03-2.49-1.24-3.99zm4.13 2.18c.48-.91.21-1.9-.68-2.37-.9-.48-1.87-.14-2.35.77s-.21 1.9.69 2.38c.89.46 1.86.13 2.34-.78zM87.74 71.61l.92.49.56 4.4 1.7-3.21 1.06.56-2.68 5.07-.94-.5-.58-4.3-1.65 3.12-1.06-.56 2.67-5.07z"/>
  <path fill="#1a1b1c" d="M63.22 89.74l.13 10.76c-.02.57.62.92 1.09.58l9.14-5.86c.34-.25.31-.77-.07-.96l-9.46-5c-.37-.2-.82.06-.83.48z"/>
</svg>
