<svg xmlns="http://www.w3.org/2000/svg" viewBox="0 0 184.25 113.39">
  <path fill="#f1cb0d" d="M175.09 56.76v-.04h-.01c-.19-2.87-.69-5.85-1.53-8.94-2.08-7.73-7.02-13.18-13.21-17.74-5.41-3.98-10.32-8.13-9.63-15.87.26-2.86-1.96-2.85-4.08-2.87l-22.08-.02-64.79-.05-22.08-.02c-2.12.02-4.34.01-4.09 2.87.68 7.73-4.24 11.88-9.65 15.85-6.2 4.55-11.14 9.99-13.23 17.72-.84 3.08-1.35 6.06-1.54 8.94h-.01v.08h.01c.19 2.87.69 5.85 1.53 8.94 2.08 7.73 7.02 13.18 13.21 17.74 5.41 3.98 10.32 8.13 9.63 15.87-.26 2.86 1.96 2.85 4.08 2.87l22.08.02 64.79.05 22.08.02c2.12-.02 4.34-.01 4.09-2.87-.68-7.73 4.24-11.88 9.65-15.85 6.2-4.55 11.14-9.99 13.23-17.72.84-3.08 1.35-6.06 1.54-8.94h.01v-.04z"/>
  <path d="M53 40.64h3.26l3.67 9.49 3.65-9.5h3.24l.01 12.25h-2.56l-.01-7.91-2.89 7.88h-2.88l-2.93-7.87.01 7.91h-2.56L53 40.64zM77.63 50.04h-4.47l-.92 2.83h-2.79l4.36-12.26h3.13l4.39 12.25h-2.79l-.91-2.82zm-.75-2.21l-1.5-4.57-1.49 4.58 2.99-.01zM83.94 40.61h4.22c3.37 0 6.73 1.63 6.73 6.12s-3.36 6.13-6.68 6.13h-4.25l-.02-12.25zm4.46 9.87c2.16 0 3.71-1.34 3.71-3.75 0-2.45-1.54-3.75-3.7-3.74H86.5l.01 7.5 1.89-.01zM106.19 50.5v2.34l-8.16.01-.01-12.25 7.91-.01v2.34l-5.35.01v2.5l4.94-.01v2.34l-4.94.01v2.72h5.61zM114.56 40.57h2.56l.01 12.25h-2.56l-.01-12.25zM120.97 40.57h2.22l5.47 7.76-.01-7.77h2.56l.01 12.25h-2.27l-5.42-7.54.01 7.55h-2.56l-.01-12.25z"/>
  <g>
    <path d="M51.4 70.55v2.34l-8.16.01-.02-12.25 7.91-.01v2.34l-5.35.01v2.5l4.94-.01v2.34l-4.94.01v2.72h5.62zM52.21 60.64h2.85l2.93 9.38 2.92-9.39h2.83l-4.23 12.26H56.5l-4.29-12.25zM82.61 70.51v2.34l-17.88.03-.02-12.25 17.89-.03v2.34l-15.32.02v2.5l15.32-.02v2.34l-15.32.02v2.72l15.33-.01zM88.29 68.25h-.79l.01 4.6h-2.56l-.02-12.25 4.78-.01c2.49 0 4.31 1.4 4.31 3.81 0 1.37-.84 3.1-2.95 3.66l3.61 4.77h-3.19l-3.2-4.58zm-.8-2.16h1.66c1.32 0 2.11-.62 2.11-1.7 0-1.15-.76-1.71-2.11-1.71h-1.66v3.41zM96.06 60.58h2.56l.01 9.91 5-.01v2.34l-7.56.01-.01-12.25zM112.8 69.98l-4.47.01-.91 2.83h-2.79l4.36-12.26h3.14l4.4 12.25h-2.79l-.94-2.83zm-.74-2.22l-1.5-4.58-1.49 4.58h2.99zM117.67 60.54h2.22l5.47 7.76-.01-7.77h2.56l.02 12.25h-2.27l-5.42-7.54.01 7.55h-2.56l-.02-12.25zM130.1 60.52l4.22-.01c3.37-.01 6.72 1.63 6.73 6.12s-3.36 6.13-6.68 6.14l-4.25.01-.02-12.26zm4.47 9.87c2.16 0 3.71-1.34 3.71-3.75 0-2.45-1.54-3.75-3.7-3.74h-1.91l.01 7.5 1.89-.01z"/>
  </g>
</svg>
