<?xml version="1.0" encoding="utf-8"?>
<!-- Generator: Adobe Illustrator 24.3.0, SVG Export Plug-In . SVG Version: 6.00 Build 0)  -->
<svg version="1.1" id="Layer_1" xmlns="http://www.w3.org/2000/svg" xmlns:xlink="http://www.w3.org/1999/xlink" x="0px" y="0px"
	 viewBox="0 0 184.25 113.39" style="enable-background:new 0 0 184.25 113.39;" xml:space="preserve">
<style type="text/css">
	.st0{fill:#AEFF00;}
	.st1{clip-path:url(#SVGID_2_);}
</style>
<g>
	<circle class="st0" cx="85.98" cy="53.06" r="45.41"/>
	<g>
		<path d="M47.55,59.19l-1.24,0.12l-0.43-4.35l6.57-0.65l0.41,4.22l-1.24,0.12l-0.28-2.87l-1.42,0.14l0.25,2.59l-1.24,0.12
			l-0.25-2.59l-1.44,0.14L47.55,59.19z"/>
		<path d="M52.84,58.8l0.4,1.45l-4.48,2.89l5.32,0.19l0.4,1.45l-6.97-0.48l-0.42-1.54L52.84,58.8z"/>
		<path d="M51.72,71.42l-2.35-2.23l-0.63-1.21l5.98-2.79l0.49,1.23l-0.68,1.12l-0.36-0.59l-1.29,0.6l1.1,2.36l-1.12,0.53l-1.1-2.36
			l-1.31,0.61L51.72,71.42z"/>
	</g>
	<g>
		<path d="M109.19,81.65l-0.33,0.28l1.61,1.88l-1.05,0.9l-4.29-5.02l1.96-1.67c1.02-0.87,2.26-0.93,3.1,0.06
			c0.48,0.56,0.74,1.57,0.07,2.53l3.15,0.7l-1.31,1.12L109.19,81.65z M108.11,81.04l0.68-0.58c0.54-0.46,0.65-0.99,0.27-1.43
			c-0.4-0.47-0.91-0.44-1.46,0.04l-0.68,0.58L108.11,81.04z"/>
		<path d="M109.47,75.82l0.89-1.05l4.07,3.45l1.84-2.17l0.96,0.82l-2.73,3.22L109.47,75.82z"/>
		<path d="M118.9,71.4l-1.23,2.07l1.06,1.2l-0.77,1.29l-4.47-5.39l0.86-1.45l6.88,1.33l-0.77,1.29L118.9,71.4z M117.67,71.14
			l-2.53-0.56l1.71,1.95L117.67,71.14z"/>
		<path d="M115.79,66.46l0.39-1.13l4.91-1.41l-3.95-1.37l0.45-1.3l6.24,2.16l-0.4,1.16l-4.79,1.42l3.84,1.33l-0.45,1.3L115.79,66.46
			z"/>
		<path d="M117.9,59.94l0.28-2.25c0.23-1.8,1.33-3.48,3.72-3.18s3.05,2.21,2.83,3.98l-0.29,2.27L117.9,59.94z M123.48,58.22
			c0.14-1.16-0.46-2.07-1.75-2.23c-1.31-0.16-2.1,0.57-2.25,1.72l-0.13,1.02l4,0.5L123.48,58.22z"/>
	</g>
	<g>
		<defs>
			<path id="SVGID_1_" d="M108.92,86.51l-5.28-6.37c0,0-47.61-13.86-48.01-13.94l-7.41,3.51l13.62,19.44l29.71,7.09l16.01-5.58
				L108.92,86.51z"/>
		</defs>
		<clipPath id="SVGID_2_">
			<use xlink:href="#SVGID_1_"  style="overflow:visible;"/>
		</clipPath>
		<path class="st1" d="M85.6,18.36c-19.04,0-34.47,15.43-34.47,34.47S66.56,87.31,85.6,87.31s34.47-15.43,34.47-34.47
			S104.64,18.36,85.6,18.36z M85.6,86.12c-18.38,0-33.28-14.9-33.28-33.28s14.9-33.28,33.28-33.28s33.28,14.9,33.28,33.28
			S103.98,86.12,85.6,86.12z"/>
		<path class="st1" d="M85.44,16.01c-20.42,0-36.98,16.56-36.98,36.98s16.56,36.98,36.98,36.98S122.42,73.42,122.42,53
			S105.86,16.01,85.44,16.01z M85.44,88.7c-19.72,0-35.7-15.98-35.7-35.7s15.98-35.7,35.7-35.7s35.7,15.98,35.7,35.7
			S105.15,88.7,85.44,88.7z"/>
		<path class="st1" d="M85.44,13.47c-21.83,0-39.53,17.7-39.53,39.53s17.7,39.53,39.53,39.53s39.53-17.7,39.53-39.53
			S107.27,13.47,85.44,13.47z M85.44,91.16c-21.08,0-38.16-17.09-38.16-38.16s17.09-38.16,38.16-38.16S123.6,31.92,123.6,53
			S106.51,91.16,85.44,91.16z"/>
	</g>
	<g>
		<path d="M52.77,30.08l0.98-1.1l4.05,2.14l-2.49-3.91l0.83-0.94l4.19,1.98l-2.63-3.75l0.98-1.11l3.77,5.69l-0.94,1.07l-4.17-1.98
			l2.48,3.9l-0.94,1.07L52.77,30.08z"/>
		<path d="M67.53,23.62l0.73,1.03l-3.59,2.54l-3.82-5.38l3.48-2.47l0.73,1.03l-2.35,1.67l0.78,1.1l2.17-1.54l0.73,1.03l-2.17,1.54
			l0.85,1.2L67.53,23.62z"/>
		<path d="M66.77,17.96l1.24-0.59l2.29,4.82l2.57-1.22l0.54,1.14l-3.81,1.81L66.77,17.96z"/>
		<path d="M73.11,18.64c-0.56-2.08,0.64-3.68,2.29-4.13c1.43-0.39,2.55,0.17,3.03,0.64l-0.96,1.11c-0.28-0.3-0.9-0.67-1.71-0.45
			c-1.03,0.28-1.61,1.22-1.27,2.47s1.29,1.77,2.33,1.49c0.82-0.22,1.16-0.92,1.21-1.28l1.44,0.34c-0.11,0.69-0.86,1.85-2.29,2.24
			C75.46,21.53,73.65,20.65,73.11,18.64z"/>
		<path d="M80.37,16.82c-0.09-1.97,1.28-3.46,3.24-3.55c1.96-0.09,3.47,1.26,3.56,3.23c0.09,1.96-1.28,3.46-3.24,3.55
			C81.98,20.14,80.46,18.78,80.37,16.82z M85.74,16.57c-0.06-1.18-0.9-2.01-2.06-1.95c-1.17,0.06-1.94,0.96-1.88,2.14
			c0.06,1.18,0.9,2.01,2.07,1.95C85.03,18.65,85.8,17.75,85.74,16.57z"/>
		<path d="M90.01,13.4l1.72,0.36l0.88,5.4l2.97-4.6l1.71,0.36l-1.35,6.45l-1.35-0.28l0.87-4.17l-2.4,3.83l-1.52-0.32l-0.67-4.47
			l-0.87,4.17l-1.35-0.28L90.01,13.4z"/>
		<path d="M102.05,22.8l-0.53,1.14l-3.99-1.85l2.77-5.99l3.87,1.79l-0.53,1.14l-2.62-1.21l-0.57,1.22l2.41,1.12l-0.53,1.14
			l-2.41-1.12l-0.62,1.33L102.05,22.8z"/>
		<path d="M109.08,22.64l-1.45-1.17l0.79-0.98l3.98,3.21l-0.79,0.98l-1.46-1.18l-3.35,4.15l-1.07-0.86L109.08,22.64z"/>
		<path d="M111.22,27.02c1.51-1.27,3.53-1.08,4.79,0.42s1.1,3.53-0.41,4.79c-1.5,1.26-3.53,1.08-4.79-0.42
			S109.72,28.28,111.22,27.02z M114.67,31.14c0.91-0.76,1.05-1.93,0.3-2.83c-0.76-0.9-1.93-0.96-2.84-0.2
			c-0.91,0.76-1.05,1.93-0.29,2.83C112.59,31.84,113.77,31.9,114.67,31.14z"/>
	</g>
</g>
</svg>
